<?xml version="1.0" standalone="no"?>
<!DOCTYPE svg PUBLIC "-//W3C//DTD SVG 20010904//EN"
 "http://www.w3.org/TR/2001/REC-SVG-20010904/DTD/svg10.dtd">
<svg version="1.0" xmlns="http://www.w3.org/2000/svg"
width="34" height="31" viewBox="0 0 500.000000 500.000000"
 preserveAspectRatio="xMidYMid meet">

<g transform="translate(0.000000,500.000000) scale(0.100000,-0.100000)"
fill="#000000" stroke="none">
<path d="M560 4565 c-168 -38 -283 -109 -362 -222 -113 -165 -95 -418 39 -563
91 -98 206 -146 466 -194 236 -44 336 -112 345 -234 5 -72 -12 -111 -69 -152
-75 -54 -142 -73 -259 -74 -154 -1 -242 30 -394 139 -35 26 -59 35 -88 35
-107 0 -170 -105 -122 -206 34 -71 197 -175 339 -216 109 -31 386 -34 480 -5
138 43 250 116 317 209 60 82 80 138 85 243 9 150 -27 262 -108 344 -86 84
-199 131 -437 180 -297 61 -382 116 -382 247 0 129 111 204 305 205 125 0 269
-48 390 -130 58 -40 146 -16 180 48 21 42 19 107 -5 146 -40 64 -179 145 -323
186 -96 27 -305 35 -397 14z"/>
<path d="M2155 4556 c-16 -7 -40 -24 -52 -37 -32 -36 -635 -1492 -635 -1535 0
-19 5 -47 11 -63 25 -59 116 -79 179 -41 35 21 60 69 147 278 l39 92 361 0
360 0 34 -83 c82 -197 118 -266 153 -287 88 -53 201 10 201 113 0 32 -69 206
-297 752 -164 391 -307 727 -318 748 -13 27 -32 44 -61 58 -49 22 -81 23 -122
5z m163 -733 c61 -142 114 -266 117 -275 7 -17 -8 -18 -230 -18 -191 0 -236 3
-233 13 7 29 223 536 229 537 3 0 56 -116 117 -257z"/>
<path d="M264 2350 c-25 -13 -49 -35 -62 -59 l-22 -39 0 -728 c0 -674 1 -732
18 -764 36 -73 123 -100 189 -60 71 43 67 17 73 592 l5 518 200 -316 c216
-341 235 -364 310 -364 74 0 96 25 311 354 l199 305 5 -507 c5 -505 5 -507 27
-538 57 -80 174 -84 243 -9 l25 27 3 751 c2 732 2 753 -17 784 -41 65 -114 88
-183 57 -37 -17 -65 -55 -320 -437 -154 -231 -283 -415 -288 -411 -4 5 -121
185 -260 399 -139 215 -262 401 -274 414 -46 52 -116 64 -182 31z"/>
<path d="M2243 2351 c-24 -11 -51 -34 -63 -53 -20 -32 -20 -49 -20 -780 l0
-747 31 -36 c79 -89 229 -57 259 55 7 26 10 283 8 759 -3 709 -3 720 -24 747
-50 68 -120 88 -191 55z"/>
<path d="M2925 2363 c-32 -8 -74 -42 -90 -74 -13 -25 -15 -127 -13 -773 l3
-744 25 -28 c14 -14 43 -35 65 -45 81 -38 154 -16 186 54 17 38 19 68 19 296
l0 253 263 -4 c245 -4 265 -5 303 -25 52 -28 92 -74 98 -116 3 -18 8 -69 11
-114 11 -156 60 -262 154 -328 38 -27 51 -30 116 -30 68 0 76 2 104 29 59 57
53 125 -19 195 -56 54 -55 52 -75 201 -18 137 -52 216 -120 279 l-45 42 64 59
c112 106 174 257 163 401 -18 237 -183 428 -401 468 -59 11 -770 14 -811 4z
m768 -282 c36 -14 81 -64 107 -118 48 -100 22 -274 -53 -359 -55 -63 -58 -64
-357 -64 l-270 0 0 275 0 275 274 0 c151 0 286 -4 299 -9z"/>
<path d="M4502 993 c-51 -25 -65 -61 -60 -160 3 -80 5 -86 34 -113 62 -55 184
-52 241 5 32 32 33 36 33 114 0 97 -16 136 -65 157 -46 19 -142 18 -183 -3z"/>
</g>
</svg>
